<svg xmlns="http://www.w3.org/2000/svg" width="197" height="48" fill="none" viewBox="0 0 197 48"><path fill="#FF4EA7" d="M16.2235 14.2229H12.3777C10.8202 5.69657 9.79714 4.11984 9.01611 4.11984C8.23508 4.11984 8.04325 5.04462 8.04325 6.14047C8.04325 13.3352 17.1005 22.2592 17.1005 29.7544C17.1005 35.1227 13.9352 38.8726 9.45458 38.8726C5.70472 38.8726 4.97393 36.6069 3.90515 36.6069C3.51692 36.6069 3.17437 37.0971 2.99167 38.5258H0.607469V24.6266H4.57657C5.9879 32.6119 6.67302 34.7297 7.88795 34.7297C8.47259 34.7297 9.05722 34.0407 9.05722 32.8801C9.05722 25.4357 0 17.1591 0 8.92401C0 3.79617 3.16523 0 7.49972 0C11.3455 0 11.784 2.90839 12.8527 2.90839C13.4419 2.90839 13.8302 2.12234 13.9763 0.342167H16.2144L16.2235 14.2229ZM28.0577 36.3572C26.8382 38.4796 24.9382 39.1315 22.9468 39.1315C20.3159 39.1315 18.6123 37.1109 18.6123 33.7587V15.7257C18.6123 14.6899 18.32 14.2461 17.443 14.2461H17.3654V9.39102H24.9564V32.9079C24.9564 33.7956 25.2031 34.4384 25.9841 34.4384C26.7651 34.4384 27.1991 33.6939 27.1991 32.3669V15.4066C27.1991 14.4819 26.9067 14.2229 26.4226 14.2229H26.3221V9.39102H33.5295V32.709C33.5295 33.7448 33.8218 34.1887 34.6988 34.1887H34.7947V38.5258H28.0577V36.3572ZM43.9798 47.3019H34.6303V42.9647H34.6805C35.8498 42.9647 36.1421 42.5023 36.1421 41.4342V16.2944C36.1421 15.2587 35.8498 14.2229 34.6805 14.2229H34.6303V9.39102H41.116V11.5596C41.9473 9.83491 43.3997 8.85003 45.5967 8.85003C50.0271 8.85003 51.5343 13.4739 51.5343 18.2688V29.7035C51.5343 34.5355 49.1958 39.1177 45.2039 39.1177C44.6757 39.1304 44.152 39.0163 43.6757 38.7849C43.1994 38.5534 42.784 38.2112 42.4634 37.786V41.9475C42.4634 42.6364 42.7055 43.1312 43.6783 43.1312H43.9707L43.9798 47.3019ZM43.6418 34.2858C44.3223 34.2858 44.7106 33.7448 44.7106 32.464V15.5269C44.7106 14.2461 44.3223 13.7051 43.6418 13.7051C42.8608 13.7051 42.4725 14.4957 42.4725 16.1233V31.7103C42.4725 33.435 42.8105 34.2719 43.6418 34.2719V34.2858ZM67.5021 25.5467H59.6141V31.8583C59.6141 33.287 60.1942 34.2719 61.2675 34.2719C62.3409 34.2719 62.8753 33.5367 62.8753 32.1033V26.994H67.26V31.5253C67.26 36.2602 64.9169 39.1177 60.6326 39.1177C55.1837 39.1177 53.1832 34.6834 53.1832 29.4076V18.6618C53.1832 13.2843 55.1837 8.85003 60.6326 8.85003C64.4327 8.85003 67.4838 12.0543 67.4838 17.922L67.5021 25.5467ZM59.6141 21.4084H61.5598V15.3558C61.5598 14.075 61.2218 13.6819 60.587 13.6819C59.9521 13.6819 59.6141 14.075 59.6141 15.3558V21.4084ZM78.2629 38.5166H68.3744V34.1794H68.4247C69.5939 34.1794 69.8863 33.6847 69.8863 32.6536V16.2852C69.8863 15.2494 69.5939 14.2137 68.4247 14.2137H68.3744V9.39102H72.8048V10.9724C73.1521 10.3463 73.6533 9.82185 74.26 9.44995C74.8667 9.07806 75.5581 8.87139 76.267 8.85003C78.167 8.85003 80.2589 10.2788 80.2589 13.386C80.2589 16.1002 78.7014 17.922 76.8973 17.922C76.5518 17.9306 76.2082 17.8672 75.888 17.7357C75.5677 17.6042 75.2776 17.4075 75.0356 17.1577C74.7936 16.908 74.6049 16.6105 74.4812 16.2838C74.3576 15.9571 74.3015 15.6082 74.3167 15.2587C74.3154 14.8533 74.3957 14.452 74.5528 14.0791C74.7098 13.7063 74.9403 13.3697 75.2302 13.0901C75.233 13.0633 75.23 13.0361 75.2211 13.0107C75.2123 12.9852 75.1979 12.9621 75.179 12.943C75.1602 12.9239 75.1373 12.9094 75.1122 12.9004C75.0871 12.8915 75.0603 12.8883 75.0338 12.8913C74.4491 12.8913 73.4763 13.779 73.4763 15.2587C73.4763 18.033 76.2167 18.856 76.2167 21.7321V32.6351C76.2167 33.6708 76.509 34.2118 77.386 34.2118H78.2629V38.5166Z"/><path fill="#FA7500" d="M81.3779 14.2225H81.3323V9.39055H87.7586V11.61C88.8777 9.58937 90.4352 8.83568 92.4814 8.83568C93.2518 8.79486 94.0146 9.00802 94.6553 9.44319C95.296 9.87837 95.78 10.5121 96.0348 11.2493C97.1538 9.57549 98.7753 8.83568 100.762 8.83568C103.292 8.83568 104.85 10.3662 104.85 13.7185V32.6762C104.85 33.7119 105.142 34.1558 105.763 34.1558H105.818V38.4976H97.7796V34.3038H97.8755C98.2683 34.3038 98.5104 33.8137 98.5104 33.1201V15.4524C98.5104 14.5692 98.314 13.9265 97.5375 13.9265C96.761 13.9265 96.4185 14.4213 96.4185 15.9009V33.1525C96.4185 33.846 96.6606 34.3362 97.0488 34.3362H97.1447V38.53H89.7455V34.3362H89.846C90.2296 34.3362 90.4763 33.846 90.4763 33.1525V15.4524C90.4763 14.5692 90.2844 13.9265 89.5034 13.9265C88.7224 13.9265 88.4301 14.5184 88.4301 15.8501V33.1525C88.4301 33.846 88.6264 34.3362 89.0147 34.3362H89.1152V38.53H80.2589V34.1882H80.6471C81.8164 34.1882 82.1087 33.7258 82.1087 32.6577V15.7992C82.1087 14.7634 81.9169 14.2225 81.3779 14.2225ZM115.807 36.796C114.93 38.1277 113.857 39.108 111.911 39.108C108.55 39.108 106.654 36.2504 106.654 31.3677C106.654 25.7497 109.623 22.2957 114.391 20.5247V15.8501C114.391 13.6306 113.907 13.0387 113.227 13.0387C112.642 13.0387 112.204 13.2376 112.204 13.9265C112.204 14.4213 113.117 14.7172 113.117 16.5899C113.121 16.9691 113.051 17.3454 112.911 17.6972C112.771 18.049 112.564 18.3692 112.301 18.6396C112.038 18.9099 111.725 19.1249 111.38 19.2723C111.035 19.4197 110.664 19.4964 110.29 19.4983C108.244 19.4983 106.882 17.9215 106.882 15.605C106.952 13.7583 107.737 12.0136 109.068 10.749C110.399 9.48446 112.169 8.802 113.994 8.84955C118.909 8.84955 120.516 12.8908 120.516 17.6765V33.0045C120.516 33.8923 120.909 34.1882 121.489 34.1882H122.124V38.3774C121.305 38.7862 120.406 39.0057 119.493 39.0201C118.728 39.0641 117.968 38.8765 117.309 38.4812C116.65 38.0859 116.123 37.5008 115.794 36.8007L115.807 36.796ZM113.601 34.387C114.136 34.387 114.378 34.1373 114.378 32.7086V24.848C113.117 25.4908 112.774 27.5576 112.774 30.8128C112.774 33.6703 112.921 34.3639 113.601 34.3639V34.387ZM123.389 16.2708C123.389 15.2351 123.097 14.1993 121.928 14.1993H121.882V9.39055H129.72V35.284C129.72 38.6363 130.45 39.4732 130.45 42.1828C130.45 45.4195 128.651 47.9996 125.728 47.9996C123.051 47.9996 121.197 46.0807 121.197 43.8613C121.197 41.7898 122.567 40.3102 124.216 40.3102C124.698 40.2769 125.18 40.3847 125.603 40.6208C126.027 40.8569 126.375 41.2114 126.605 41.6418C126.796 41.984 127.061 41.8869 127.061 41.5401C127.061 38.4375 123.407 39.0294 123.407 34.9835L123.389 16.2708ZM122.416 4.04539C122.416 2.99321 122.829 1.98412 123.564 1.24011C124.299 0.496106 125.296 0.078125 126.335 0.078125C127.374 0.078125 128.371 0.496106 129.106 1.24011C129.841 1.98412 130.254 2.99321 130.254 4.04539C130.242 5.08771 129.828 6.08395 129.1 6.82103C128.372 7.55811 127.388 7.97751 126.358 7.98952C125.324 7.97896 124.334 7.56146 123.598 6.82535C122.863 6.08924 122.439 5.09228 122.416 4.04539ZM139.298 39.108C133.744 39.108 131.748 34.7199 131.748 29.3517V18.5642C131.748 13.1405 133.744 8.75245 139.298 8.75245C144.852 8.75245 146.843 13.1867 146.843 18.5642V29.3609C146.843 34.683 144.797 39.1172 139.298 39.1172V39.108ZM139.298 13.5797C138.617 13.5797 138.178 14.1253 138.178 15.4062V32.4635C138.178 33.7443 138.635 34.2853 139.298 34.2853C139.96 34.2853 140.417 33.7443 140.417 32.4635V15.4062C140.417 14.1253 139.96 13.5797 139.298 13.5797ZM157.508 38.5485H147.702V34.2067H147.752C148.921 34.2067 149.209 33.7119 149.209 32.6762V16.2939C149.209 15.2582 148.921 14.2225 147.752 14.2225H147.702V9.39055H152.132V10.9673C152.479 10.3427 152.98 9.81962 153.586 9.4486C154.192 9.07758 154.882 8.87123 155.59 8.84955C157.49 8.84955 159.581 10.2783 159.581 13.3855C159.581 16.0951 158.024 17.9215 156.224 17.9215C155.879 17.9301 155.535 17.8667 155.215 17.7352C154.895 17.6037 154.605 17.407 154.363 17.1572C154.121 16.9075 153.932 16.61 153.808 16.2833C153.685 15.9567 153.629 15.6077 153.644 15.2582C153.643 14.8529 153.723 14.4516 153.88 14.0788C154.037 13.706 154.268 13.3694 154.557 13.0896C154.56 13.0632 154.557 13.0365 154.548 13.0114C154.54 12.9863 154.526 12.9635 154.508 12.9445C154.489 12.9255 154.467 12.9108 154.442 12.9016C154.418 12.8923 154.392 12.8886 154.365 12.8908C153.781 12.8908 152.808 13.7786 152.808 15.2582C152.808 18.0325 155.548 18.8555 155.548 21.7316V32.6346C155.548 33.6703 155.841 34.2113 156.718 34.2113H157.494L157.508 38.5485ZM161.207 15.8177C161.207 14.7819 161.112 14.2409 160.431 14.2409H160.235V9.39055H167.543V32.7594C167.543 33.7443 167.839 34.1882 168.712 34.1882H168.812V38.53H159.047V34.1882H159.732C160.901 34.1882 161.189 33.7258 161.189 32.6577L161.207 15.8177ZM160.235 4.087C160.248 3.03156 160.668 2.02305 161.405 1.27669C162.142 0.530318 163.138 0.105183 164.181 0.091996C164.955 0.0965704 165.71 0.332823 166.352 0.77101C166.994 1.2092 167.493 1.82974 167.787 2.55455C168.081 3.27936 168.157 4.07606 168.005 4.84437C167.853 5.61268 167.48 6.31827 166.932 6.87235C166.385 7.42643 165.688 7.80425 164.929 7.95824C164.17 8.11223 163.383 8.03552 162.667 7.73777C161.951 7.44002 161.338 6.93452 160.905 6.2849C160.472 5.63529 160.239 4.87058 160.235 4.087ZM170.151 33.097V15.5264C170.151 14.6016 170.004 14.2409 169.47 14.2409H168.639V9.5385H168.986C171.032 9.5385 172.252 8.70159 172.252 4.80832V4.21647H176.486V8.89579C176.486 9.29344 176.682 9.39055 176.974 9.39055H179.066V14.2225H177.413C176.499 14.2225 176.499 14.5184 176.499 15.2582V33.1525C176.499 33.9431 176.595 34.1373 176.956 34.1373C177.317 34.1373 177.413 33.9431 177.413 33.1525V30.3458H180.235V33.8923C180.235 37.0457 178.436 39.1172 175.367 39.1172C171.959 39.1172 170.205 37.0966 170.205 33.1062L170.151 33.097ZM185.835 39.1172C183.209 39.1172 181.501 37.0966 181.501 33.7443V15.7113C181.501 14.6756 181.213 14.2317 180.331 14.2317H180.235V9.39055H187.836V32.9074C187.836 33.7952 188.078 34.4333 188.854 34.4333C189.631 34.4333 190.074 33.6934 190.074 32.3618V15.4062C190.074 14.4814 189.781 14.2225 189.293 14.2225H189.197V9.39055H196.404L196.5 39.1172C196.5 42.9642 194.892 47.9904 188.279 47.9904C184.867 47.9904 182.241 46.0715 182.241 43.3665C182.241 41.5401 183.551 39.9171 185.894 39.9171C187.502 39.9171 188.576 40.8049 188.576 42.0857C188.597 42.6532 188.461 43.2154 188.183 43.7087C188.248 43.8724 188.365 44.0098 188.515 44.1C188.665 44.1902 188.841 44.2281 189.014 44.2081C189.695 44.2081 190.718 43.7087 190.718 41.7389V36.3568C189.498 38.4745 187.845 39.1311 185.844 39.1311"/></svg>