<svg xmlns="http://www.w3.org/2000/svg" xmlns:xlink="http://www.w3.org/1999/xlink" viewBox="0 0 154 30"><g fill="none" fill-rule="evenodd"><g fill="#fff"><path d="m10.469 8.7545c-.62277.0091072-1.2782.013929-1.9661.014464l-1.6291-.0029464c-.58714-.0024107-2.1683-.0091071-2.6665-.020089-.41384.031607-.7717.16929-1.0736.41357-.30161.24429-.47089.54295-.50732.89652-.020089.50143-.10366 1.2538-.25071 2.2564-.14732 1.0026-.37848 2.3534-.69375 4.0521l-.66134 3.5451c-.17705.99402-.33643 1.7989-.47813 2.4155-.1417.61634-.26571 1.0931-.37205 1.4301-.088661.30348-.04125.58125.1417.83304s.46634.38009.85018.38491l2.812-.0029464c.64527-.0024107 1.2421-.0091071 1.7901-.020089.35357.0010715.69643.0048215 1.0296.011518.33295.0066964.65866.010714.97688.011518h1.5587c.45562.0040179.84911-.10741 1.1807-.33321.33188-.22607.56009-.52098.68491-.88473.046875-.24-.028929-.43259-.22714-.57777-.19848-.14545-.44545-.18295-.74116-.11223-.050089.012321-.10902.027589-.17705.046071-.067768.017946-.12696.033214-.17705.046072-.016875.0008035-.048214.0045535-.094554.01125-.046071.0066964-.077679.010714-.094286.011786-.5542.089196-1.1288.14679-1.7239.1725-.59545.025982-1.0757.0375-1.4408.034821-.80143.017143-1.3626-.017411-1.6835-.10366-.32089-.086786-.47518-.32839-.46312-.72562 0-.13741.011786-.29464.035357-.47223s.058929-.38089.10607-.61018l.84938-4.2841h-.21214c.0096429-.001875.1433-.0096428.40071-.022768.25768-.013661.58018-.021161.96723-.023304.17036.0005357.35518.0053572.555.014464s.38491.019554.555.031607c.40795.03375.79071-.027589 1.1483-.18375.35786-.15616.58098-.40125.67018-.73554.04125-.26866-.070982-.47839-.3367-.6292-.26571-.15107-.5783-.21696-.93857-.19848-.13446.012054-.29679.022768-.48696.031875-.19045.0091071-.38223.013928-.57589.014464-.083036.0008036-.17062.0048215-.2625.011518-.092143.0066964-.18562.010446-.28045.01125h-.87295l.50732-2.5797.50705-2.5797h-.11786c.058125-.0008036.12482-.0048214.20062-.011518.075804-.0069643.16634-.010446.27188-.011518.32732-.011786.71705-.0225 1.1687-.031875.45161-.0088393.91232-.013661 1.3816-.014196.53304.001875.97875.015536 1.3374.040446.35839.024911.62116.049821.78804.074732.35196.039375.66375-.016071.93589-.16661.27214-.15054.44812-.35545.52848-.615.0225-.22688-.069911-.42804-.27777-.60321-.20732-.17518-.45348-.27295-.73795-.29304-.52232.012054-1.095.0225-1.718.031607"/><path d="m16.547 14.527c-.60348.11304-1.1644.34473-1.6829.69482-.47411.35304-.85875.7583-1.1537 1.2161-.29518.45723-.44705.94795-.45616 1.4719.0099107.40821.11089.75696.30348 1.0457.19232.28848.41679.52768.67366.71732s.48723.34018.69107.45241l1.2043.6817c.28179.14411.525.31929.72911.52527.20411.20571.31098.48536.32062.83786-.0024107.40661-.18696.77196-.55393 1.0958-.3667.32384-.90107.495-1.6031.51348-.36562-.0021429-.67688-.031072-.93348-.087589-.25634-.05625-.47545-.1283-.65679-.21509-.255-.1208-.50732-.1492-.7575-.085714-.24964.064018-.42455.20625-.5242.42643-.071518.26464-.030268.51429.12375.74839.15429.23438.38491.39429.69188.47946.18777.038839 1.4427.070179 1.6883.094554.24562.024643-.53705.037232-.27214.037768.44143.014732 2.0038-.028393 2.6108-.12991.60723-.10098 1.2094-.34768 1.807-.73902.57429-.4275.9817-.88741 1.2217-1.3789.24-.49179.35652-.94688.34929-1.3655-.025178-.56036-.19795-.99723-.51911-1.3112-.32062-.3142-.63911-.55259-.95491-.71491l-.99027-.58688c-.36295-.1792-.67714-.3892-.94286-.62973s-.405-.57348-.41786-.99884c.0024107-.40125.18214-.77705.5392-1.1263.35732-.34982.87696-.53571 1.5597-.55875.20357.0010715.39241.0225.56705.064018.17464.04125.33455.095893.48.16339.26304.12348.52232.16045.77866.11116.2558-.049018.44277-.1875.56062-.41411.093214-.21884.081161-.43286-.036429-.64259-.11786-.20946-.31929-.34821-.60455-.41679h.019554c-.18161-.046339-.37634-.079554-.58446-.10045-.20812-.020625-1.4847-.030804-1.7534-.030268-.032411-.0008035-.065089-.0013392-.098572-.0013392-.39268 0-.86732.052232-1.4234.15643"/><path d="m24.693 15.342c-.99884.67714-1.7421 1.5188-2.2299 2.5238-.4875 1.0058-.73045 2.014-.72857 3.0254.012589 1.301.43366 2.3199 1.2638 3.0568.82982.73661 2.6427 1.2166 4.1403 1.23.16768 0 .33723-.0048214.50973-.014464.1725-.0091071.33268-.023304.48054-.042321.28821-.040714.54696-.1342.77679-.28125.22982-.14652.39134-.33.48536-.55018.052768-.17036.020357-.31607-.097232-.43688-.11705-.12134-.28527-.15804-.50464-.11116-.19259.066429-.39.11786-.59196.15375-.2025.035893-.4192.054107-.65089.054375-.2625.0021429-.52393-.030268-.78402-.096964-.25982-.066696-.51643-.17946-.76929-.33857-.46312-.30911-.76982-.70821-.91982-1.1976-.15-.48911-.21884-.97339-.20652-1.4531.0029464-.88661.16152-1.7221.47545-2.5063.3142-.78402.76768-1.4231 1.3602-1.9171.5925-.49393 1.3074-.74893 2.1453-.76446.16473.0008035.3158.013393.45375.038036s.26491.057054.38116.096696h-.019554c.25473.098304.50732.12911.75723.092411.24991-.036696.42482-.16205.52446-.37607.078214-.20062.076875-.40098-.0050893-.60107-.081428-.20036-.2483-.33455-.49982-.40232v-.0002678c-.16473-.038571-.35491-.070179-.57027-.094286-.21562-.024643-.45938-.037232-.73098-.037768-1.5319.026786-3.4465.27375-4.4454.95089"/><path d="m35.367 14.677c-.55527.24509-.95491.46446-1.1995.65812-.9083.74384-1.6021 1.5616-2.0804 2.4538-.47839.89223-.80384 1.7127-.97607 2.4621-.17223.7492-.25312 1.2812-.24295 1.5956.031607 1.0754.34688 1.8712.9458 2.3879.59893.51696 1.4585.88902 2.2473.8858.54857-.012321 1.1802-.060804 1.6744-.2467.72857-.27429.93-.45777 1.2801-.88179.35009-.42402.34071-.38384.53759-.62036.06.26759-.094821.53384-.11571.74812-.0096428.23357.11089.40821.31473.56357.20357.15562.45562.23223.75616.22929.071518-.0032143.17973-.0026786.30536-.0024107.38786.001875.94232.0032142 1.1065-.10473.21696-.14304.3308-.32946.34179-.55982-.0016071-.29384.030536-.7275.096964-1.3007.066429-.57295.17625-1.2814.33-2.1246l.34982-1.8737c.16366-.8625.30214-1.5605.41491-2.0941.11277-.53357.20732-.95223.28393-1.2565.027857-.25071-.057054-.46366-.25473-.63884-.19768-.17491-1.091-.35411-1.3835-.28312l-.39107-.018482c-.28473-.10821-.5708-.053304-.90161-.13554-.3308-.082232-.72107-.12536-1.1708-.12964-.84696.0225-1.7135.041518-2.269.28661m2.2219.99c.20196-.013393.39723-.026786.55848.012857.24991.061875.46741.12402.65223.18643h-.019554c.010982.010714.026518.017143.046339.019286h.031072c-.01125.0008036-.021696.0008036-.031072 0h-.065625l-.50438 2.6312c-.17036.93723-.35304 1.703-.54804 2.2974-.19473.59438-.42616 1.0714-.69402 1.4317-.34473.47598-.69964.81107-1.0637 1.0055-.36429.1942-.70902.28821-1.0347.28152-.55768-.013125-.79205-.18991-1.0339-.60777-.24214-.41786-.36027-.96027-.35464-1.6275-.00375-.41464.055982-.93429.1792-1.5581.12295-.62411.33241-1.2498.62732-1.8777.29491-.62732.64527-.99027 1.1571-1.4159.51161-.42509.98839-.74866 1.762-.76607.010446.0002679.021161.0002679.031875.0002679.10045 0 .2033-.0064286.30402-.013125"/><path d="m59.245 14.677c-.55554.24509-.95545.46446-1.2.65812-.90804.74384-1.6015 1.5616-2.0802 2.4538-.47839.89223-.80384 1.7127-.97607 2.4621-.17223.7492-.25312 1.2812-.24295 1.5956.031607 1.0754.34688 1.8712.94607 2.3879.59893.51696 1.4585.88902 2.2471.8858.54857-.012321 1.1799-.060804 1.6744-.2467.72857-.27429.93-.45777 1.2801-.88179.35036-.42402.34071-.38384.53786-.62036.059732.26759-.095089.53384-.11598.74812-.0096429.23357.11089.40821.31446.56357.20384.15562.45589.23223.75643.22929.071518-.0032143.17973-.0026786.30536-.0024107.38786.001875.94232.0032142 1.1065-.10473.2167-.14304.3308-.32946.34179-.55982-.0016071-.29384.030804-.7275.096964-1.3007.066429-.57295.17652-1.2814.33-2.1246l.34955-1.8737c.1642-.8625.30241-1.5605.41518-2.0941.11277-.53357.20759-.95223.28393-1.2565.027857-.25071-.057054-.46366-.25473-.63884-.19795-.17491-1.091-.35411-1.3835-.28312l-.39107-.018482c-.285-.10821-.5708-.053304-.90161-.13554-.3308-.082232-.72134-.12536-1.1708-.12964-.84696.0225-1.7135.041518-2.2688.28661m2.2216.99c.2017-.013393.39723-.026786.55848.012857.24991.061875.46741.12402.65223.18643h-.019554c.010982.010714.026518.017143.046339.019286h.031339c-.011518.0008036-.021964.0008036-.031339 0h-.065625l-.50438 2.6312c-.17036.93723-.35304 1.703-.54804 2.2974-.19473.59438-.42589 1.0714-.69429 1.4317-.34473.47598-.69911.81107-1.0637 1.0055-.36402.1942-.70902.28821-1.0345.28152-.55768-.013125-.79179-.18991-1.0339-.60777-.24214-.41786-.36027-.96027-.35464-1.6275-.0034822-.41464.05625-.93429.1792-1.5581.12321-.62411.33214-1.2498.62732-1.8777.29491-.62732.64554-.99027 1.1571-1.4159.51161-.42509.98839-.74866 1.7617-.76607.010714.0002679.021429.0002679.032143.0002679.10045 0 .20304-.0064286.30402-.013125"/><path d="m83.123 14.677c-.55527.24509-.95518.46446-1.1997.65812-.9083.74384-1.6018 1.5616-2.0802 2.4538-.47839.89223-.80384 1.7127-.97607 2.4621-.17223.7492-.25312 1.2812-.24295 1.5956.031607 1.0754.34688 1.8712.9458 2.3879.59893.51696 1.4585.88902 2.2473.8858.54857-.012321 1.1799-.060804 1.6744-.2467.72857-.27429.93-.45777 1.2801-.88179.35009-.42402.34071-.38384.53759-.62036.06.26759-.094554.53384-.11571.74812-.0096428.23357.11089.40821.31446.56357.20384.15562.45589.23223.75643.22929.071518-.0032143.17973-.0026786.30536-.0024107.38759.001875.94232.0032142 1.1062-.10473.21696-.14304.33107-.32946.34179-.55982-.0016071-.29384.030804-.7275.097232-1.3007.066161-.57295.17625-1.2814.33-2.1246l.34929-1.8737c.1642-.8625.30268-1.5605.41518-2.0941.11304-.53357.20759-.95223.2842-1.2565.027857-.25071-.057054-.46366-.255-.63884-.19741-.17491-1.0907-.35411-1.3832-.28312l-.39107-.018482c-.285-.10821-.5708-.053304-.90188-.13554-.3308-.082232-.72107-.12536-1.1708-.12964-.8467.0225-1.7132.041518-2.2688.28661m2.2219.99c.20196-.013393.39723-.026786.55848.012857.24991.061875.46741.12402.65196.18643h-.019286c.010982.010714.02625.017143.046339.019286h.031071c-.01125.0008036-.021696.0008036-.031071 0h-.065893l-.50411 2.6312c-.17036.93723-.35304 1.703-.54804 2.2974s-.42616 1.0714-.69402 1.4317c-.345.47598-.69964.81107-1.0639 1.0055-.36429.1942-.70902.28821-1.0345.28152-.55795-.013125-.79205-.18991-1.0339-.60777-.24214-.41786-.36027-.96027-.35464-1.6275-.00375-.41464.055982-.93429.1792-1.5581.12295-.62411.33214-1.2498.62732-1.8777.29491-.62732.64527-.99027 1.1569-1.4159.51188-.42509.98866-.74866 1.7622-.76607.010446.0002679.021161.0002679.031875.0002679.10045 0 .2033-.0064286.30402-.013125"/><path d="m49.311 14.56c-.35759.15536-.86411.33884-.97902.44009-.34875.25634-.36027.18964-.61071.45509-.14571.064018-.30804.28768-.34848-.025179.0088393-.23518-.091339-.42643-.3008-.57402-.20973-.14786-.46527-.20223-.76661-.16286-.10929.023036-.45991.019554-.79339.016072-.25902-.0024107-.50812-.0050893-.62652.0045535-.23062.039375-.39964.14946-.50679.33054-.10714.18134-.16446.36723-.17196.55768.011518.20089.0075.45643-.012322.76634-.019821.30991-.0675.66054-.1433 1.0508.0013393.019821-.0010715.051161-.0072322.094554-.0061607.043661-.023036.094018-.050893.15161-.064822.37554-.11973.70848-.165.99884-.045268.29009-.10045.61366-.16527.97018l-1.2233 6.1918c-.010446.057857-.023304.11812-.038839.18054-.015268.062679-.028125.12268-.038572.18054l-.29384 1.4038c-.099107.47143-.2017.89679-.3083 1.2755-.036429.22607.046071.42.2475.58205.2017.16179.4492.24643.74277.2542l.87723.073661c.35384.010446.64125-.081429.8617-.27536.22045-.1942.34741-.43795.38116-.73179.018482-.17893.044464-.3908.077411-.6367.033482-.24536.07875-.5333.13607-.86438.069643-.39054.14384-.78321.22312-1.178.079018-.39509.15348-.78723.22286-1.1772.36482.073125.67741.12054.93804.1417s.49125.030536.69134.028125c.78268-.005625 1.515-.15482 2.1978-.44625.68277-.29196 1.2844-.69134 1.8046-1.1984.49982-.4958 1.0856-.99402 1.444-1.6653.35839-.67125.63375-1.3701.82634-2.096.19232-.72589.28955-1.4191.2917-2.0796-.010714-1.024-.26116-1.7997-.75188-2.3269-.49071-.52714-1.3149-.8775-2.16-.87964-.62009.016072-1.1427.013661-1.5005.16929m-2.9194 9.0179c-.26491-.098839-.46875-.10446-.66804-.21509h.096964c0-.064821.0048214-.12.014732-.1658.009375-.045536.024107-.091339.043393-.13714.079821-.44545.19152-1.0122.33455-1.7012.14304-.6892.30295-1.327.47973-1.9144v-.0013392c.35143-1.0878.795-1.9321 1.3307-2.5323.53598-.60054 1.0961-.90482 1.6805-.91366.52982.017411.64259.27938.87857.67554.23598.39589.3517.87804.34714 1.4454.0029464.39134-.14464.79098-.23196 1.3529-.087322.5617-.23598 1.1312-.44598 1.7079-.21027.57643-.49875 1.0827-.86491 1.5182-.16929.22875-.47062.36777-.84884.61554-.37795.2475-.51884.40339-1.1738.42402-.38411-.0066964-.70821-.059464-.97286-.15857"/><path d="m76.899 11.499c-.030804.009375-.82607.070982-.8858.080357-.06.009375-.12482.019018-.1942.028125-.30188.047946-.52821.17491-.67955.38116-.15107.20625-.22232.43259-.21348.67902.019554.20116.0099107.45214-.028929.75241s-.10661.69321-.20357 1.178c-.18054-.048482-.37205-.088661-.57482-.12054-.20223-.031875-.43741-.048482-.70527-.049554-.89464.010714-1.7373.21134-2.5278.60214-.79045.39134-1.6414.93455-2.1962 1.5793-.56196.72375-.98732 1.4598-1.2763 2.2082-.28929.74839-.48321 1.4073-.58259 1.9768-.099643.56946-.14571.94821-.13875 1.1354.025446 1.0781.33321 1.8836.92384 2.4169.59036.53357 1.4896.77438 2.3397.77357.52955-.011518 1.0838-.042589 1.4981-.31312.41411-.27054.88125-.47062 1.2005-.86304.31929-.39268.27589-.27214.43795-.39991-.038839.26491.022232.27938.010982.38545-.026786.28071.075268.51295.30536.69696.23036.18375 1.2664.22714 1.6082.23384.31393-.017678.56357-.11946.7492-.30482.18536-.18562.285-.40527.29839-.6592.0050893-.43661.048214-.92571.12857-1.4668.080357-.54107.16714-1.0682.25982-1.5809.01875-.084375.034286-.16661.046071-.24616.011518-.079821.022232-.16179.031339-.24589l1.0487-5.7163c.038571-.18938.073125-.3683.10446-.53652.031071-.16848.061071-.32357.089732-.46607l.16741-.85688c.045-.23304.08625-.43339.12375-.60054.032946-.24268-.071518-.42938-.31312-.56089-.17411-.094554-.37018-.14196-.58821-.14196-.084643 0-.1725.0072321-.26357.021429m-6.1591 12.013c-.4883-.013125-.65438-.14545-.91446-.57214-.25982-.4267-.39804-.91741-.40045-1.5996l.0072321-.050625c0-.2933.052768-.78188.17196-1.3907s.32652-1.241.62196-1.8964c.29571-.65598.7058-1.2137 1.2305-1.6733.52473-.45938.95598-.70982 1.7628-.73018.24884.001875.48348.026518.70312.073393s.44438.10446.67366.1725h-.13554c-.24696 1.2407-.45134 2.2371-.61286 2.9896-.16152.75241-.31098 1.3535-.4492 1.8029-.13741.44973-.29464.84027-.47062 1.1719-.35946.66241-.73821 1.1271-1.1365 1.3939-.36911.24777-.68196.30991-.98089.30991-.023839 0-.047411-.0002679-.070714-.0010715"/></g><g fill="#558b2f"><path d="m93.993 9.5682c-.24938.24777-.39402.54482-.43393.89116-.021696.23946-.055178.52929-.10018.8692-.045536.33991-.11438.73875-.20679 1.1962-.23946 1.3069-.49232 2.6462-.75857 4.0176l-.77652 4.0229c-.17357.83304-.32812 1.5437-.46339 2.1321-.13554.58875-.24295 1.0904-.38143 1.5206l-.016071.071786c-.080625.28902.0088393.48161.24696.70714.23812.22527.55312.3442.94446.35679.011518-.0010714.94768.061072.97125.061875.43205-.0096428.79018-.13446 1.0746-.3742.2842-.23973.45348-.53705.50759-.89223h-.023571c.0225-.066429.036429-.11143.04125-.135.0048214-.023572.0069643-.039643.0058929-.049018.0010714-.025982.0048214-.060268.011786-.10366.0069643-.042857.010982-.077679.011786-.10339.13393-.79821.27964-1.6422.43688-2.5323.1575-.89009.30321-1.7344.43714-2.5326l1.2862.023304c.095357.55902.3233 1.2206.51911 1.8225s.5333 1.1239.8175 1.6942c.2483.47411.48375.90161.70554 1.2836.22179.38196.42777.70607.61714.97286.23705.33134.57134.57214 1.0037.72214.43178.15027 1.2131.18321 1.6864.18054.059732.0013393.11759.0050893.17411.011786s.10848.010714.15616.011518h.25955c.27616-.0066964.74786-.16018.84134-.3683s.065893-.40768-.0825-.59839c-.87268-.91393-1.5876-1.8892-2.145-2.9266s-1.073-2.0164-1.1791-3.1254c0 0 .76178-.34179 1.3409-.58554.57884-.24348 1.5196-.63402 2.0719-1.1504.76312-.78455 1.2479-1.5276 1.4537-2.2288.20598-.70125.29545-1.1979.26839-1.4888.012054-.48777-.10607-1.0157-.35384-1.5838-.24777-.56839-1.0717-1.0631-1.7204-1.5062-.52366-.28768-1.1038-.46929-1.7403-.54482-.6367-.075536-1.2287-.10795-1.777-.097232-.11652.00080357-.24348.0045536-.38089.01125-.13714.0066964-.29357.010446-.46929.011518-.18643-.00026786-.43929.00053571-.75857.0029464-.31929.0024107-.64902.0091072-.98893.020089l-2.152-.062143c-.4058.00080357-.73366.12536-.98304.37312m4.118 1.174c.29062-.025446.55339-.037768.78804-.037232.69938.050089.86598.11518 1.4095.47411.54375.3592 1.3452 1.0063 1.3663 1.942.004285.32598-.059465.71196-.19179 1.1579-.13179.44571-.46554.76018-.7867 1.178-.32089.41786-.76259.74786-1.3251.9892-.43875.18991-1.3031.35464-1.7657.41545-.46232.060804-.4058.088393-.86812.083036-.075804-.0002679-.14705.019554-.2183.038839-.075804.021161-.15107.042054-.22982.038304-.083839-.0034822-.13527.0021428-.18455.0080357-.040446.0045535-.079554.009375-.1342.0088393l-.11786.0000409.56679-2.9601c.16821-.85688.29812-1.4957.38973-1.9165.091339-.4208.19768-.85286.31875-1.2967h-.21268c.50652-.056518.90482-.097768 1.1957-.12321"/><path d="m114.87 14.618c-.047678.0005357-.088125.0042857-.12134.011786-.033214.0072321-.064018.016339-.092143.02625h.019286c-.031072.0085714-.070715.014732-.11893.01875-.047946.00375-.092678.010178-.13339.019018-.3142.064554-.56384.20491-.74946.42107-.18536.21616-.285.46071-.29839.73366-.008839.23384-.039375.54161-.092143.9225-.0525.38089-.13178.84964-.23732 1.4057-.14893.75482-.32652 1.5019-.53357 2.2404-.20678.73875-.42348 1.3104-.65009 1.7156-.43875.63214-.88232 1.0382-1.331 1.2185-.44839.18027-.77545.25982-.98116.23893-.45054-.010982-.50705-.033482-.69295-.29089-.18562-.25714-.27562-.57161-.26946-.94312-.00134-.19768.073928-.37929.11893-.65009.045-.2708.066964-.69455.1725-1.1668l.50893-2.7967c.091607-.41464.22527-.75241.2925-1.0444.067232-.2917.20946-.5925.32036-1.0074.036161-.24777-.050625-.4575-.25982-.6292-.2092-.17223-.7808-.4042-1.0848-.36777-.039911.0002679-.081161.0042857-.12375.011786-.042321.0075-.07875.016072-.10902.025982-.031607.0085714-.070714.015-.11679.019018-.046071.00375-.08491.010179-.11652.019018-.31661.066964-.77009.22554-.9142.44893-.14438.22339-.2242.46286-.24027.7192-.016071.22714-.061339.53009-.13554.90884l-.96991 5.0349c-.057322.34098-.032679.58446-.056518.76232-.023304.17786-.099643.34446-.098839.46795.0225.68893.34821 1.1858.8483 1.5228.49982.3367 1.2638.50652 1.9749.50545.16848.0077679.51214.010446.96214-.076071.45027-.086786.90295-.10821 1.3629-.38384.27161-.1958.49125-.24911.6975-.52768.20598-.2783.10821-.40527.3083-.49554-.009643.18161.10848.17545.10795.2925-.009643.27241.097232.50223.32036.68973s.50438.285.84375.29304c.31045-.0061607 1.1028-.042857 1.3162-.21.21321-.16714.32009-.37661.32009-.62839v-.15134c-.002946-.34232.046608-.87295.14812-1.5916.10152-.7192.27214-1.7277.51188-3.0262.15536-.86705.30589-1.6227.45161-2.2669.14571-.64446.28634-1.2011.42241-1.6701.034822-.20893-.049553-.38786-.25232-.53759-.18214-.13366-.81857-.23625-1.1478-.23625-.038304 0-.072589.0013393-.10152.0042858"/><path d="m124.56 14.944c-.17598.056786-.39589.043125-.58393.12804-.18804.084911-.47946.17438-.66509.28768-.34955.23705-.39777.28098-.76232.54348-.18562.13393-.33295.55232-.47062.55982.03-.1342.000803-.1508.025982-.25634.025179-.10527.042857-.1875.053571-.24536.007768-.23571-.095625-.42616-.31071-.57214-.21509-.14545-.47384-.19446-.77598-.14652h.019286c-.15509.019018-1.0797.097232-1.2737.11598-.29089.046607-.50411.16634-.63991.3592s-.1942.40714-.17464.64286c.010983.21375-.001071.49045-.036428.82982-.035089.33964-.10071.76312-.19661 1.2707l-.95143 5.1297c-.020625.14357-.052232.29625-.094553.45911-.042858.16232-.088661.32464-.13848.48723-.055446.24402.01634.45134.21589.62223.19955.17062.45107.25982.75482.26732l.8475-.059196c.34688.0024107.63804-.087322.87295-.26973.23545-.18188.37098-.41411.40741-.69562.035357-.43339.10045-.95491.19473-1.564.094286-.60938.19955-1.2051.31527-1.7869.11571-.58232.22366-1.0487.32384-1.4004.27857-.91902.64366-1.6074 1.0945-2.0654.45107-.45804.88875-.73446 1.313-.83062.33054-.075.63562-.19393.91527-.35679.27938-.16259.47277-.37125.57991-.62598.068035-.25071.014464-.46312-.16018-.6383-.13312-.13312-.29464-.21482-.49688-.21482-.063482 0-.13071.0080358-.2025.024911"/><path d="m129.96.69362c.30375.21241.77491.52125 1.4138.92598.46446.33482.83304.72723 1.1054 1.177.17518.28955.28554.50839.33107.65679-.088928 1.151-.099107 2.0357-.030535 2.6531.10312 1.0355.35893 1.8903.76741 2.5645.40848.67446.90188 1.1654 1.4807 1.4727.21268.13446.51509.29089.90696.47009.39188.1792.71893.2325.98116.16098.26196-.071786.5558-.16232.88152-.27214.22339-.13554.33428-.31259.33241-.53062.030804-.23812-.041518-.50143-.21643-.79018-.23277-.38518-.8025-.89464-1.7095-1.5287l-1.9988-1.3562.008036-.20304 2.7852 1.1427c-.25232-.41705-.68089-.83705-1.286-1.2605-.60536-.42348-1.1654-.80812-1.6803-1.1545.28018-.25768.74491-.21 1.3945.14277.38598.20518.6975.32357.93482.35545-.079017-.34714-.48643-.71464-1.2228-1.103-.73634-.38812-1.1987-.70071-1.3864-.93804l.093482-.38598c1.7095.58982 3.0394 1.6714 3.9908 3.2443.3683.60938.63455 1.1936.79821 1.7521.31473 1.1676.21402 2.8307.14973 4.2729-.026518.6-.017946 1.1365-.005089 1.6604-.019554.21938-.047947.4717-.086786.7575-.087321.6442-.22312 1.4802-.40741 2.5077l-.44143 2.4603-.20411 1.1229-.092143.50491-.04125.22018-.055714.29062c0 .039911-.004822.10232-.014733.18696-.009375.084911-.024107.18027-.043392.28607l-.092411.56571c-.030804.20384-.051697.40661-.062947.60804-.029196.33107-.001071.66723.084108 1.0088.08491.34098.2858.62946.60161.86545.3158.23598 1.515.29545 2.1779.31125.16661 0 .33321-.0045536.49982-.014196.16661-.009375.32357-.023571.47062-.042321.29652-.039911.55768-.13071.78375-.27214.2258-.14143.38545-.32223.47812-.54161.059732-.18027.027321-.3308-.097233-.45214-.12455-.1208-.29277-.15321-.50464-.096964l-.1117.035625-.0825.021428c-.12938.046875-.23812.032411-.34795.053036-.11036.020893-.24938.031339-.41732.031071-.21027-.031339-.35759-.12509-.44143-.28179-.084375-.1567-.13554-.19714-.13232-.21884-.07125-.22312-.088928-.49607-.053571-.81857.035893-.3225.085714-.66161.1508-1.0173.028393-.135.053572-.27616.075-.42348l.060536-.40902.44652-2.5551.016071-2.5492c.10045-.52714.25955-2.2385.25955-2.2385.22714-.47946.38946-1.215.50545-1.6088.1867-.85554.35277-1.3931.645-1.7266.31125-.27643.55714-.73286.73822-1.369.38062-1.2388.76178-1.9736 1.1429-2.2053.2858-.17384.67125-.25473 1.1558-.24321.45134-.18616 1.013-.24295 1.6856-.17062.67259.072589 1.3208.15938 1.9446.26089-.38009.23143-1.0275.45027-1.943.65732-.91607.20705-1.5806.43554-1.9931.68652.60054.20357 1.1946.43312 1.7826.68839-.24723.23732-.72857.40982-1.4451.5175s-1.2118.22286-1.485.34527c-.005089.135.06.3142.19527.53813.15509.25661.35089.45482.58768.59518.23652.14036.61661.24857 1.1397.32411.585-.18161 1.0487-.36589 1.3915-.55286.34259-.1867.62464-.34795.84643-.48295l5.2714-4.3899c-1.6018-.2917-3.1953-.56786-4.7807-.82848-1.886-.25393-3.3691-.053571-4.4488.60188-.50812.30884-.92062.66884-1.2378 1.08-.94929 1.1772-2.0754 3.6672-2.4865 5.5982l-.083036.010178c.018215-1.2675-.41598-2.5671-.63214-3.7294-.24161-1.2999-.68277-2.4793-1.3227-3.5381-.73768-1.2196-1.6677-2.1812-2.7903-2.8843-1.1231-.70393-2.0446-1.1454-2.7646-1.3248-.43741-.12161-.8633-.18241-1.2779-.18241-.53009 0-1.0414.099375-1.5346.29812"/><path d="m129.32 14.677c-.555.24509-.95518.46446-1.1995.65812-.90857.74384-1.6018 1.5616-2.0802 2.4538-.47866.89223-.80384 1.7127-.97634 2.4621-.17196.7492-.25312 1.2812-.24295 1.5956.031608 1.0754.34688 1.8712.9458 2.3879.5992.51696 1.4585.88902 2.2473.8858.54857-.012321 1.1802-.060804 1.6744-.2467.72884-.27429.93027-.45777 1.2804-.88179.34982-.42402.34045-.38384.53759-.62036.06.26759-.094821.53384-.11598.74812-.009911.23357.11089.40821.31446.56357.20384.15562.45589.23223.7567.22929.071251-.0032143.17946-.0026786.30509-.0024107.38786.001875.94232.0032142 1.1062-.10473.21696-.14304.33107-.32946.34205-.55982-.001607-.29384.030804-.7275.096965-1.3007.066428-.57295.17625-1.2814.33-2.1246l.34982-1.8737c.16366-.8625.30188-1.5605.41491-2.0941.11277-.53357.20759-.95223.28393-1.2565.027858-.25071-.057053-.46366-.255-.63884-.19768-.17491-1.0907-.35411-1.3832-.28312l-.39107-.018482c-.28473-.10821-.5708-.053304-.90188-.13554-.3308-.082232-.72107-.12536-1.1708-.12964-.84643.0225-1.7135.041518-2.2688.28661m2.2221.99c.2017-.013393.39696-.026786.55795.012857.25045.061875.46768.12402.65223.18643h-.019285c.010982.010714.02625.017143.046339.019286h.031339c-.011518.0008036-.021964.0008036-.031339 0h-.065893l-.50411 2.6312c-.17036.93723-.3533 1.703-.54804 2.2974-.19473.59438-.42616 1.0714-.69402 1.4317-.345.47598-.69964.81107-1.0639 1.0055-.36429.1942-.70902.28821-1.0345.28152-.55768-.013125-.79179-.18991-1.0339-.60777-.24214-.41786-.36027-.96027-.35438-1.6275-.004018-.41464.055714-.93429.17893-1.5581.12321-.62411.33214-1.2498.62732-1.8777.29491-.62732.64527-.99027 1.1571-1.4159.51161-.42509.98839-.74866 1.7617-.76607.010715.0002679.021429.0002679.032143.0002679.10045 0 .20304-.0064286.30429-.013125"/></g></g></svg>